<?xml version="1.0" encoding="utf-8"?>
<!-- Generator: Adobe Illustrator 16.0.0, SVG Export Plug-In . SVG Version: 6.00 Build 0)  -->
<!DOCTYPE svg PUBLIC "-//W3C//DTD SVG 1.1//EN" "http://www.w3.org/Graphics/SVG/1.1/DTD/svg11.dtd">
<svg version="1.1" id="レイヤー_1" xmlns="http://www.w3.org/2000/svg" xmlns:xlink="http://www.w3.org/1999/xlink" x="0px"
	 y="0px" width="170px" height="140px" viewBox="0 0 170 140" enable-background="new 0 0 170 140" xml:space="preserve">
<g>
	<rect fill="#F5A000" width="170" height="140"/>
	<g>
		<g>
			<path fill="#FFFFFF" d="M50,98.6H39.1v-1.8c-1.6,1.3-3.4,2.4-5.3,3.4l-1.7-2.3c4.8-2,8.2-5.1,10.4-9.4h3.2
				c2.4,3.6,6.2,6.7,10.9,8.8l-1.7,2.4c-1.7-0.9-3.8-2.2-4.9-3.1V98.6z M52.1,100.9l1.4,1.4c-3,4.6-5.7,7.8-8.3,9.9l-2.5-1.6
				c2.5-2.1,5.2-5,6.7-7.3H35.5v-2.5H52.1z M49.4,96.2c-2.2-1.6-3.9-3.4-5.3-5.3c-1,1.9-2.4,3.6-4.3,5.3H49.4z"/>
			<path fill="#FFFFFF" d="M80.5,101.6h-7.8v2.4h8.8v2.2h-8.8v2.6h10.4v2.3H59.8v-2.3H70v-2.6h-8.6V104H70v-2.4h-7.7V89.5h18.2
				V101.6z M64.9,94.5h5.2v-2.7h-5.2V94.5z M64.9,99.4h5.2v-2.9h-5.2V99.4z M78,91.7h-5.4v2.7H78V91.7z M78,96.5h-5.4v2.9H78V96.5z"
				/>
			<path fill="#FFFFFF" d="M95,92.6c0.5,0.9,0.8,1.6,1.1,2.4l-2.4,0.8c-0.3-1.1-0.8-2.3-1.2-3.2h-1.5c-0.9,1.5-1.9,2.8-3.1,3.8
				l-1.5-1.9c1.7-1.6,3-3.8,3.9-6.4l2.6,0.5c-0.3,0.7-0.3,0.8-0.7,1.8h6.3v2.2H95z M97,109.5c0,1.8-0.6,2.4-2.5,2.4
				c-0.8,0-1.8-0.1-2.4-0.1l-0.5-2.3c0.8,0.1,1.6,0.2,2.3,0.2c0.6,0,0.7-0.1,0.7-0.7v-2.8h-4c-0.2,2.6-0.8,4.4-2.2,6.1l-2-1.7
				c1.5-2,1.9-3.6,1.9-6.9v-7.3H97V109.5z M90.8,102.2v0.8v1l0,0.2h3.9v-2H90.8z M90.8,100.3h3.9v-2h-3.9V100.3z M104.2,98.7h5.4
				c-0.1,6-0.3,9.8-0.7,11.2c-0.3,1.4-1.2,2-2.8,2c-0.8,0-2-0.1-2.9-0.2l-0.4-2.6c0.9,0.2,1.8,0.3,2.6,0.3c0.8,0,1-0.2,1.1-0.9
				c0.2-1.1,0.4-3.1,0.5-6.5l0-1.1h-2.9c-0.3,5.6-1.7,8.7-4.9,11.2l-1.9-2c2.7-1.8,3.9-4.5,4.3-9.1H98v-2.3h3.7v-3.1h2.3
				c-0.3-0.9-0.8-2.1-1.4-3.1h-1.3c-0.7,1.3-1.4,2.5-2.2,3.3l-1.9-1.5c1.4-1.8,2.5-3.9,3-6.2l2.6,0.5c-0.2,0.6-0.3,1-0.6,1.8h8v2.2
				h-5c0.4,0.7,0.9,1.6,1.4,2.5l-2.4,0.9V98.7z"/>
			<path fill="#FFFFFF" d="M116.9,97c-1.1-1.5-2.2-2.8-3.1-3.7l1.5-1.8c0.6,0.6,0.7,0.8,0.9,1c1-1.4,1.8-2.9,2.4-4.4l2.3,1.1
				c-1.2,2-2.2,3.5-3.3,4.9c0.4,0.5,0.8,1.1,1.1,1.5c1.2-1.6,1.9-2.8,2.8-4.3l2,1.2c-1.6,2.5-3.5,4.9-5.1,6.8l1.8-0.1
				c1-0.1,1-0.1,1.6-0.1c-0.4-0.9-0.5-1.3-0.8-1.9l1.8-0.7c0.7,1.3,1.4,3.1,1.9,4.8l-1.9,0.9c-0.1-0.5-0.2-0.9-0.3-1.2
				c-0.7,0.1-1.3,0.2-2.1,0.3V112h-2.3v-10.6c-0.2,0-0.2,0-0.4,0c-1,0.1-1.4,0.1-3.3,0.2l-0.6-2.4h0.7l0.5,0l1,0l0.5-0.6l0.5-0.7
				l0.5-0.7L116.9,97z M113.6,109.2c0.6-1.8,0.9-3.8,1.1-6.3l2.1,0.3c-0.1,2.8-0.5,5.2-1.1,7.2L113.6,109.2z M121.8,108.2
				c-0.3-2-0.7-3.9-1.1-5.2l1.8-0.5c0.6,1.5,1.1,3.2,1.3,4.7L121.8,108.2z M127.9,101.8l1.1,1.1c-0.7,3.5-2.6,6.4-5.1,8.3l-1.7-1.9
				c2.1-1.2,3.7-3.2,4.3-5.3h-2.8v-2.2H127.9z M131.7,109.8c0,1.4-0.6,2-2.1,2c-0.6,0-1.5-0.1-2.3-0.2l-0.4-2.4
				c0.6,0.1,1.3,0.2,1.8,0.2c0.5,0,0.6-0.1,0.6-0.7v-8.6h-4.5v-9.6h3.7c0.3-0.8,0.6-1.7,0.7-2.6l2.6,0.4c-0.3,0.8-0.5,1.4-0.9,2.2
				h5.3v9.6h-4.4c0.4,1,0.9,2,1.6,3.1c1-0.9,1.8-1.9,2.5-2.9l1.9,1.5c-0.9,1-1.9,2-3.2,3c1,1.2,2.4,2.5,3.8,3.5l-1.6,2.4
				c-2.1-1.9-3.8-4.2-5-7V109.8z M127.2,94.4h6.7v-1.9h-6.7V94.4z M127.2,98.2h6.7v-2h-6.7V98.2z"/>
		</g>
		<g>
			<path fill="#FFFFFF" d="M87.1,37.6v23.7h-3.6V37.6H87.1z"/>
			<g>
				<path fill="#FFFFFF" d="M85.3,26.4c-12.7,0-23,10.3-23,23c0,12.7,10.3,23,23,23c12.7,0,23-10.3,23-23
					C108.3,36.7,98,26.4,85.3,26.4z M85.3,69.5c-5.5,0-10.5-2.2-14.2-5.9c-3.6-3.6-5.9-8.6-5.9-14.2c0-5.5,2.2-10.6,5.9-14.2
					c3.6-3.6,8.6-5.9,14.2-5.9c5.5,0,10.5,2.2,14.2,5.9c3.6,3.6,5.9,8.6,5.9,14.2c0,5.5-2.2,10.6-5.9,14.2
					C95.8,67.3,90.8,69.5,85.3,69.5z"/>
			</g>
		</g>
	</g>
</g>
<g>
</g>
<g>
</g>
<g>
</g>
<g>
</g>
<g>
</g>
<g>
</g>
</svg>
