<?xml version="1.0" encoding="UTF-8" standalone="no"?>
<svg xmlns="http://www.w3.org/2000/svg" width="400" height="400" viewBox="0 0 400 400" version="1.1">
<path fill="#fe330f" d="M280.45 12.779c-66.527 27.413-90.797-14.086-160.9 7.801v137.823c17.554-33.155 39.516-38.529 66.31-45.833 70.448-19.205 84.189-67.178 94.59-99.791z"/>
<path fill="#74b4a7" d="M119.55 158.403V312.78h153.52z"/>
<path fill="#333" d="M171.51 337.49v.873c0 2.99-6.058 5.271-8.288 5.923-2.23.652-8.288 3.928-8.288 8.909v33.154h13.087v-33.154c0-5.942 2.666-7.914 5.453-9.396 2.787-1.483 5.453-2.476 5.453-5v-1.309h-7.416zm105.074 6.544c-3.917 0-8.264 2.578-10.072 6.053l-18.878 36.262h11.342l4.978-11.01c1.812-4.009 2.266-3.822 6.368-3.822h9.275c4.012 0 4.544-.206 6.387 3.822l5.035 11.01h14.515l-18.876-36.262c-1.808-3.475-6.157-6.053-10.074-6.053zm45.21 0c-3.25 0-6.543 2.693-6.543 6.053v36.262h13.087v-25.614c0-.64.359-.823 1.04-.143l24.093 24.093c1.591 1.592 3.294 2.536 6.543 2.536 3.25 0 6.544-2.693 6.544-6.053v-36.262H353.47v25.614c0 .64-.36.823-1.04.143l-24.093-24.094c-1.592-1.591-3.294-2.535-6.544-2.535zm-288.352.872v41.443H46.53v-18.41l.902-.693c.606-.465 1.255-.932 2.13-.932.874 0 1.585.44 2.13.985l19.05 19.05h15.675l-21.781-21.781c-.801-.802-1.54-2.076-1.54-3.023 0-.948.758-1.877 1.461-2.417l18.532-14.222H70l-23.472 18.012v-18.012H33.442zm67.18 0a6.544 6.544 0 0 0-6.543 6.544v28.355a6.544 6.544 0 0 0 6.543 6.544h38.825v-6.544h-30.1a2.181 2.181 0 0 1-2.181-2.181v-8.07c0-1.205.977-2.182 2.181-2.182h24.43v-5.67h-24.43a2.181 2.181 0 0 1-2.181-2.182v-5.89c0-1.204.977-2.18 2.181-2.18h30.1v-6.544h-38.825zm87.684 0v41.443h13.087v-16.795c0-1.205.977-2.182 2.181-2.182h18.54c1.205 0 2.181.977 2.181 2.182v16.795h13.088v-41.443h-13.088v14.614a2.181 2.181 0 0 1-2.18 2.181h-18.54a2.181 2.181 0 0 1-2.182-2.18v-14.615h-13.087zm86.6 8.115c.93 0 1.342 1.034 2.014 2.501l4.028 8.809c.884 1.932.312 1.95-.395 1.95h-11.216c-.709 0-1.286-.004-.406-1.95l3.983-8.809c.663-1.467 1.062-2.501 1.992-2.501z"/>
</svg>