<?xml version="1.0" encoding="utf-8"?>
<!-- Generator: Adobe Illustrator 16.0.0, SVG Export Plug-In . SVG Version: 6.00 Build 0)  -->
<!DOCTYPE svg PUBLIC "-//W3C//DTD SVG 1.1//EN" "http://www.w3.org/Graphics/SVG/1.1/DTD/svg11.dtd">
<svg version="1.1" id="レイヤー_1" xmlns="http://www.w3.org/2000/svg" xmlns:xlink="http://www.w3.org/1999/xlink" x="0px"
	 y="0px" width="170px" height="140px" viewBox="0 0 170 140" enable-background="new 0 0 170 140" xml:space="preserve">
<g>
	<rect fill="#EC75A9" width="170" height="140"/>
	<g>
		<g>
			<path fill="#FFFFFF" d="M45.7,98.5h10v2.6h-10V112h-2.9v-10.9H33v-2.6h9.9v-5.3c-1.8,0.3-5.1,0.6-7.7,0.8l-1.1-2.5
				c5.9-0.3,12.8-1.2,17.2-2.4l2,2.3c-2,0.5-4.5,1-7.5,1.5V98.5z"/>
			<path fill="#FFFFFF" d="M80.3,111.6h-2.8v-1.7H65.3v1.7h-2.8V90h17.8V111.6z M65.3,98.4h12.2v-6H65.3V98.4z M65.3,107.3h12.2
				v-6.4H65.3V107.3z"/>
			<path fill="#FFFFFF" d="M93.6,92.2c-0.5-1-1.2-2.3-1.9-3.1l2.6-0.9c0.7,0.8,1.4,1.9,2.1,3.2l-2.2,0.8h6c0.9-1.6,1.5-2.7,1.9-4.1
				l2.9,0.7c-0.5,1-1.1,2.2-1.9,3.4h7.3v2.3H86.6v-2.3H93.6z M98,109.8c0,1.6-0.5,2-2.2,2c-0.9,0-1.9-0.1-2.6-0.1l-0.3-2.4
				c0.7,0.1,1.5,0.2,2,0.2c0.5,0,0.7-0.2,0.7-0.7v-2.5h-4.7v5.8h-2.4V96.2H98V109.8z M90.9,100.3h4.7v-2h-4.7V100.3z M90.9,104.3
				h4.7v-2.1h-4.7V104.3z M103.2,96.8v10.4h-2.5V96.8H103.2z M108.5,96v13.4c0,1.8-0.7,2.4-2.8,2.4c-1.1,0-2.4-0.1-3.5-0.2l-0.5-2.6
				c1,0.2,2.4,0.3,3.2,0.3c0.7,0,0.9-0.2,0.9-0.9V96H108.5z"/>
			<path fill="#FFFFFF" d="M116.9,97c-1.1-1.5-2.2-2.8-3.1-3.7l1.5-1.8c0.6,0.6,0.7,0.8,0.9,1c1-1.4,1.8-2.9,2.4-4.4l2.3,1.1
				c-1.2,2-2.2,3.5-3.3,4.9c0.4,0.5,0.8,1.1,1.1,1.5c1.2-1.6,1.9-2.8,2.8-4.3l2,1.2c-1.6,2.5-3.5,4.9-5.1,6.8l1.8-0.1
				c1-0.1,1-0.1,1.6-0.1c-0.4-0.9-0.5-1.3-0.8-1.9l1.8-0.7c0.7,1.3,1.4,3.1,1.9,4.8l-1.9,0.9c-0.1-0.5-0.2-0.9-0.3-1.2
				c-0.7,0.1-1.3,0.2-2.1,0.3V112h-2.3v-10.6c-0.2,0-0.2,0-0.4,0c-1,0.1-1.4,0.1-3.3,0.2l-0.6-2.4h0.7l0.5,0l1,0l0.5-0.6l0.5-0.7
				l0.5-0.7L116.9,97z M113.6,109.2c0.6-1.8,0.9-3.8,1.1-6.3l2.1,0.3c-0.1,2.8-0.5,5.2-1.1,7.2L113.6,109.2z M121.8,108.2
				c-0.3-2-0.7-3.9-1.1-5.2l1.8-0.5c0.6,1.5,1.1,3.2,1.3,4.7L121.8,108.2z M127.9,101.8l1.1,1.1c-0.7,3.5-2.6,6.4-5.1,8.3l-1.7-1.9
				c2.1-1.2,3.7-3.2,4.3-5.3h-2.8v-2.2H127.9z M131.7,109.8c0,1.4-0.6,2-2.1,2c-0.6,0-1.5-0.1-2.3-0.2l-0.4-2.4
				c0.6,0.1,1.3,0.2,1.8,0.2c0.5,0,0.6-0.1,0.6-0.7v-8.6h-4.5v-9.6h3.7c0.3-0.8,0.6-1.7,0.7-2.6l2.6,0.4c-0.3,0.8-0.5,1.4-0.9,2.2
				h5.3v9.6h-4.4c0.4,1,0.9,2,1.6,3.1c1-0.9,1.8-1.9,2.5-2.9l1.9,1.5c-0.9,1-1.9,2-3.2,3c1,1.2,2.4,2.5,3.8,3.5l-1.6,2.4
				c-2.1-1.9-3.8-4.2-5-7V109.8z M127.2,94.4h6.7v-1.9h-6.7V94.4z M127.2,98.2h6.7v-2h-6.7V98.2z"/>
		</g>
		<g>
			<path fill="#FFFFFF" d="M78.6,55.1c1.4,2.3,3.8,3.6,6.7,3.6c3.6,0,5.6-1.4,5.6-3.7c0-1.1-0.6-2-1.7-2.5c-0.6-0.3-1.3-0.6-4.7-1.7
				c-2.4-0.8-3.8-1.4-4.9-2c-1.9-1.1-2.9-3-2.9-5.1c0-4.2,3.3-6.8,8.5-6.8c4.1,0,6.7,1.4,8.5,4.6l-3.1,2c-1-2.2-2.7-3.3-5.4-3.3
				c-2.9,0-4.8,1.3-4.8,3.3c0,1.2,0.7,2.1,1.9,2.6c0.9,0.4,1.9,0.7,4.1,1.4c2.3,0.7,4.2,1.4,5.2,2c2.1,1.2,3.3,3.2,3.3,5.4
				c0,4.5-3.6,7.2-9.6,7.2c-4.4,0-7.6-1.7-9.5-5L78.6,55.1z"/>
			<g>
				<path fill="#FFFFFF" d="M85.3,26.4c-12.7,0-23,10.3-23,23c0,12.7,10.3,23,23,23s23-10.3,23-23C108.3,36.7,98,26.4,85.3,26.4z
					 M85.3,69.5c-5.5,0-10.5-2.2-14.2-5.9c-3.6-3.6-5.9-8.6-5.9-14.2c0-5.5,2.2-10.6,5.9-14.2c3.6-3.6,8.6-5.9,14.2-5.9
					c5.5,0,10.5,2.2,14.2,5.9c3.6,3.6,5.9,8.6,5.9,14.2c0,5.5-2.2,10.6-5.9,14.2C95.8,67.3,90.8,69.5,85.3,69.5z"/>
			</g>
		</g>
	</g>
</g>
<g>
</g>
<g>
</g>
<g>
</g>
<g>
</g>
<g>
</g>
<g>
</g>
</svg>
