<?xml version="1.0" encoding="utf-8"?>
<!-- Generator: Adobe Illustrator 16.0.0, SVG Export Plug-In . SVG Version: 6.00 Build 0)  -->
<!DOCTYPE svg PUBLIC "-//W3C//DTD SVG 1.1//EN" "http://www.w3.org/Graphics/SVG/1.1/DTD/svg11.dtd">
<svg version="1.1" id="レイヤー_1" xmlns="http://www.w3.org/2000/svg" xmlns:xlink="http://www.w3.org/1999/xlink" x="0px"
	 y="0px" width="170px" height="140px" viewBox="0 0 170 140" enable-background="new 0 0 170 140" xml:space="preserve">
<g>
	<rect x="-0.1" fill="#AB1C87" width="170.1" height="140"/>
	<g>
		<g>
			<path fill="#FFFFFF" d="M53.2,112h-2.7v-9.2c-1.5,1-1.6,1-3,1.8l-1.7-2.3c4.6-2,8.2-5.2,10.4-9.2h2.9c2.6,3.6,6.5,6.6,10.9,8.6
				l-1.5,2.4c-1.6-0.9-2.2-1.2-3.1-1.8v9.8h-2.7v-1.3h-9.4V112z M46.7,94.7c2.6-1.4,4.7-3.2,6.4-5.7l2.2,1.5
				c-1.7,2.6-4.2,4.9-6.7,6.4L46.7,94.7z M64.2,101.5c-2.6-1.8-4.8-3.8-6.5-6.1c-1.2,2.2-3,4.3-5.4,6.1H64.2z M53.2,103.8v4.5h9.4
				v-4.5H53.2z M66,96.3c-1.9-2.1-4.4-4.3-6.7-6l2-1.7c2.2,1.5,4.6,3.5,6.7,5.7L66,96.3z"/>
			<path fill="#FFFFFF" d="M85.2,91.8h11.6v2.6h-4.4v15.2c0,1.8-0.7,2.4-2.7,2.4c-0.9,0-1.8-0.1-3.6-0.2l-0.6-2.8
				c1.1,0.2,2.4,0.3,3.3,0.3c0.7,0,0.9-0.2,0.9-0.9v-14h-4.5v12h-9v2.1h-2.3V89.4h11.3V91.8z M76.2,96.6h2.3v-5h-2.3V96.6z
				 M76.2,104.1h2.3v-5.3h-2.3V104.1z M83,91.7h-2.4v5H83V91.7z M83,98.7h-2.4v5.3H83V98.7z"/>
			<path fill="#FFFFFF" d="M103.4,97c-1.1-1.5-2.2-2.8-3.1-3.7l1.5-1.8c0.6,0.6,0.7,0.8,0.9,1c1-1.4,1.8-2.9,2.4-4.4l2.3,1.1
				c-1.2,2-2.2,3.5-3.3,4.9c0.4,0.5,0.8,1.1,1.1,1.5c1.2-1.6,1.9-2.8,2.8-4.3l2,1.2c-1.6,2.5-3.5,4.9-5.1,6.8l1.8-0.1
				c1-0.1,1-0.1,1.6-0.1c-0.4-0.9-0.5-1.3-0.9-1.9l1.8-0.7c0.7,1.3,1.4,3.1,1.9,4.8l-1.9,0.9c-0.1-0.5-0.2-0.9-0.3-1.2
				c-0.7,0.1-1.3,0.2-2.1,0.3V112h-2.3v-10.6c-0.2,0-0.2,0-0.4,0c-1,0.1-1.4,0.1-3.3,0.2l-0.6-2.4h0.7l0.5,0l1,0l0.5-0.6l0.5-0.7
				l0.5-0.7L103.4,97z M100,109.2c0.6-1.8,0.9-3.8,1.1-6.3l2.1,0.3c-0.1,2.8-0.5,5.2-1.1,7.2L100,109.2z M108.3,108.2
				c-0.3-2-0.7-3.9-1.1-5.2l1.8-0.5c0.6,1.5,1.1,3.2,1.3,4.7L108.3,108.2z M114.4,101.8l1.1,1.1c-0.7,3.5-2.6,6.4-5.1,8.3l-1.7-1.9
				c2.1-1.2,3.7-3.2,4.3-5.3h-2.8v-2.2H114.4z M118.2,109.8c0,1.4-0.6,2-2.1,2c-0.6,0-1.5-0.1-2.3-0.2l-0.4-2.4
				c0.6,0.1,1.3,0.2,1.8,0.2c0.5,0,0.6-0.1,0.6-0.7v-8.6h-4.5v-9.6h3.7c0.3-0.8,0.6-1.7,0.7-2.6l2.6,0.4c-0.3,0.8-0.5,1.4-0.9,2.2
				h5.3v9.6h-4.4c0.4,1,0.9,2,1.6,3.1c1-0.9,1.8-1.9,2.5-2.9l1.9,1.5c-0.9,1-1.9,2-3.2,3c1,1.2,2.4,2.5,3.8,3.5l-1.6,2.4
				c-2.1-1.9-3.8-4.2-5.1-7V109.8z M113.7,94.4h6.7v-1.9h-6.7V94.4z M113.7,98.2h6.7v-2h-6.7V98.2z"/>
		</g>
		<g>
			<path fill="#FFFFFF" d="M95,37.5V41h-7.9v20.5h-3.8V41h-7.9v-3.5H95z"/>
			<g>
				<path fill="#FFFFFF" d="M85.3,26.4c-12.7,0-23,10.3-23,23c0,12.7,10.3,23,23,23c12.7,0,23-10.3,23-23
					C108.3,36.7,98,26.4,85.3,26.4z M85.3,69.5c-5.5,0-10.6-2.2-14.2-5.9c-3.6-3.6-5.9-8.6-5.9-14.2c0-5.5,2.2-10.6,5.9-14.2
					c3.6-3.6,8.6-5.9,14.2-5.9c5.5,0,10.6,2.2,14.2,5.9c3.6,3.6,5.9,8.6,5.9,14.2c0,5.5-2.2,10.6-5.9,14.2
					C95.8,67.3,90.8,69.5,85.3,69.5z"/>
			</g>
		</g>
	</g>
</g>
<g>
</g>
<g>
</g>
<g>
</g>
<g>
</g>
<g>
</g>
<g>
</g>
</svg>
