<?xml version="1.0" encoding="utf-8"?>
<!-- Generator: Adobe Illustrator 16.0.0, SVG Export Plug-In . SVG Version: 6.00 Build 0)  -->
<!DOCTYPE svg PUBLIC "-//W3C//DTD SVG 1.1//EN" "http://www.w3.org/Graphics/SVG/1.1/DTD/svg11.dtd">
<svg version="1.1" id="レイヤー_1" xmlns="http://www.w3.org/2000/svg" xmlns:xlink="http://www.w3.org/1999/xlink" x="0px"
	 y="0px" width="170px" height="140px" viewBox="0 0 170 140" enable-background="new 0 0 170 140" xml:space="preserve">
<g>
	<rect x="-0.1" fill="#00A63D" width="170.1" height="140"/>
	<g>
		<g>
			<path fill="#FFFFFF" d="M56.4,88.4h2.8v4.8h9.1v12.6h-2.7v-1.9h-6.4v8.1h-2.8v-8.1h-6.2v2.1h-2.7V93.3h9V88.4z M50.1,101.5h6.2
				v-5.9h-6.2V101.5z M65.6,95.7h-6.4v5.9h6.4V95.7z"/>
			<path fill="#FFFFFF" d="M87.3,102.5c1.9,3.1,5,5.2,9.5,6.5l-1.7,2.6c-4.6-1.6-8-4.4-9.8-7.9c-1.2,4.1-4.7,6.9-10.2,8.3l-1.6-2.5
				c5.3-1,8.7-3.5,9.7-6.9H73.1v-2.4h3.5v-7.5h7v-4.2h2.6v4.2h7.1v7.5h3.6v2.4H87.3z M79.2,95v5.2h4.4V95H79.2z M86.2,100.2h4.6V95
				h-4.6V100.2z"/>
			<path fill="#FFFFFF" d="M103.4,97c-1.1-1.5-2.2-2.8-3.1-3.7l1.5-1.8c0.6,0.6,0.7,0.8,0.9,1c1-1.4,1.8-2.9,2.4-4.4l2.3,1.1
				c-1.2,2-2.2,3.5-3.3,4.9c0.4,0.5,0.8,1.1,1.1,1.5c1.2-1.6,1.9-2.8,2.8-4.3l2,1.2c-1.6,2.5-3.5,4.9-5.1,6.8l1.8-0.1
				c1-0.1,1-0.1,1.6-0.1c-0.4-0.9-0.5-1.3-0.9-1.9l1.8-0.7c0.7,1.3,1.4,3.1,1.9,4.8l-1.9,0.9c-0.1-0.5-0.2-0.9-0.3-1.2
				c-0.7,0.1-1.3,0.2-2.1,0.3V112h-2.3v-10.6c-0.2,0-0.2,0-0.4,0c-1,0.1-1.4,0.1-3.3,0.2l-0.6-2.4h0.7l0.5,0l1,0l0.5-0.6l0.5-0.7
				l0.5-0.7L103.4,97z M100,109.2c0.6-1.8,0.9-3.8,1.1-6.3l2.1,0.3c-0.1,2.8-0.5,5.2-1.1,7.2L100,109.2z M108.3,108.2
				c-0.3-2-0.7-3.9-1.1-5.2l1.8-0.5c0.6,1.5,1.1,3.2,1.3,4.7L108.3,108.2z M114.4,101.8l1.1,1.1c-0.7,3.5-2.6,6.4-5.1,8.3l-1.7-1.9
				c2.1-1.2,3.7-3.2,4.3-5.3h-2.8v-2.2H114.4z M118.2,109.8c0,1.4-0.6,2-2.1,2c-0.6,0-1.5-0.1-2.3-0.2l-0.4-2.4
				c0.6,0.1,1.3,0.2,1.8,0.2c0.5,0,0.6-0.1,0.6-0.7v-8.6h-4.5v-9.6h3.7c0.3-0.8,0.6-1.7,0.7-2.6l2.6,0.4c-0.3,0.8-0.5,1.4-0.9,2.2
				h5.3v9.6h-4.4c0.4,1,0.9,2,1.6,3.1c1-0.9,1.8-1.9,2.5-2.9l1.9,1.5c-0.9,1-1.9,2-3.2,3c1,1.2,2.4,2.5,3.8,3.5l-1.6,2.4
				c-2.1-1.9-3.8-4.2-5.1-7V109.8z M113.7,94.4h6.7v-1.9h-6.7V94.4z M113.7,98.2h6.7v-2h-6.7V98.2z"/>
		</g>
		<g>
			<path fill="#FFFFFF" d="M96.2,56.9c-2.3,4-5.3,5.8-10.1,5.8c-7.1,0-11.8-5.2-11.8-13.2c0-7.7,4.9-13.3,11.9-13.3
				c4.4,0,7.6,1.8,9.5,5.4l-3.3,1.9c-1.1-2.5-3.3-3.9-6.1-3.9c-4.6,0-7.9,4.1-7.9,9.8c0,5.8,3.1,9.7,7.7,9.7c3.2,0,5.7-1.6,7-4.5
				L96.2,56.9z"/>
			<g>
				<path fill="#FFFFFF" d="M85.3,26.4c-12.7,0-23,10.3-23,23c0,12.7,10.3,23,23,23c12.7,0,23-10.3,23-23
					C108.3,36.7,98,26.4,85.3,26.4z M85.3,69.5c-5.5,0-10.6-2.2-14.2-5.9c-3.6-3.6-5.9-8.6-5.9-14.2c0-5.5,2.2-10.6,5.9-14.2
					c3.6-3.6,8.6-5.9,14.2-5.9c5.5,0,10.6,2.2,14.2,5.9c3.6,3.6,5.9,8.6,5.9,14.2c0,5.5-2.2,10.6-5.9,14.2
					C95.8,67.3,90.8,69.5,85.3,69.5z"/>
			</g>
		</g>
	</g>
</g>
<g>
</g>
<g>
</g>
<g>
</g>
<g>
</g>
<g>
</g>
<g>
</g>
</svg>
